<svg id="Layer_1" data-name="Layer 1" xmlns="http://www.w3.org/2000/svg" viewBox="0 0 809.86 257.13"><defs><style>.cls-1{fill:#2159b3;}.cls-2{font-size:101.98px;font-family:Poppins-Medium, Poppins;font-weight:500;}.cls-3{font-size:80.41px;fill:#8d99ae;font-family:Poppins-Regular, Poppins;}</style></defs><path class="cls-1" d="M119.4,477.87c-.06.73-.32,1.48.13,2.18a13,13,0,0,0,.4,4.76c1.66,9.32,3.88,18.48,7.69,27.19a106.82,106.82,0,0,0,22.24,35.65A112.57,112.57,0,0,0,165,561.35c.58.5,1,1.22,2,1.25a2.91,2.91,0,0,0,.23-.73c0-17.45,0-34.89-.09-52.33,0-4.41.5-8.87-.64-13.23-.91-3.78-3.67-5.35-7.19-6-.78-.91-1.84-.52-2.77-.54-4.58-.08-9.16-.08-13.74-.11-.06-.34-.11-.68-.17-1q0-10,0-19.94c0-.18.07-.36.11-.53l2.15-.52a94.72,94.72,0,0,0,12.94.12,2.14,2.14,0,0,0,1.7,0l7,0a37.9,37.9,0,0,1,7.27,1.73c9.28,3.86,13.86,10.93,14.45,20.8q0,20.59,0,41.18,0,33.62.08,67.21c-4.28-.8-8.06-2.91-11.88-4.82a145.63,145.63,0,0,1-40.41-29.63c-1.29-1.34-2.74-2.55-4.11-3.81v.13c0-.19-.09-.28-.28-.25a35,35,0,0,0-3.37-4.82c-3.35-4.35-6.91-8.54-9.57-13.38l-.07-.19q-3.08-5.29-6.13-10.61l.06,0a15.92,15.92,0,0,0-2.22-4.39l.08.09a17.58,17.58,0,0,0-2.28-5l.09,0a5.91,5.91,0,0,0-1.19-3v-.12c0-.47,0-1-.47-1.28l.11,0q-.91-2.18-1.81-4.36l.07.06c-3-10.24-5.73-20.52-6.91-31.16-.11-1,.17-2.2-.84-3a1.05,1.05,0,0,0-.1-.52c.08-7.06-.59-14.09-1-21.12,0-.63.1-1.26.1-1.89,0-13.71.07-27.42-.07-41.12,0-2.59.74-3.35,3.26-3.44,4.68-.15,9.39,0,14-.82l1.15-.1c1.69-.47,3.55,0,5.16-.9l.14.08a26.8,26.8,0,0,0,8.06-1.66c2-.91,4.11-.83,6.17-1.23,1.59-.64,3.44-.42,4.9-1.5l0,0a5.69,5.69,0,0,0,1.61-.12c8-2.95,15.92-5.94,23.27-10.3a131.57,131.57,0,0,0,28.68-22.27c1.21-1.27,2.09-1.58,3.42-.08a57.14,57.14,0,0,0,5.25,5.07c6.17,5.4,12.31,10.84,19.61,14.74l-.06-.05a31.59,31.59,0,0,0,6.54,3.9l4.32,2.06a34.38,34.38,0,0,0,8.74,3.82l-.05,0c.78.35,1.54.76,2.33,1.08,0,0,.39.16.81.3,1.85.63,15.88,4.33,16.67,4.53a47.32,47.32,0,0,0,6.33,1.5,206.83,206.83,0,0,0,21.52,2c2.66,0,3,1,2.93,3.28-.1,9.75,0,19.51,0,29.26q0,22.9-.11,45.79l-10.56,0q-24.36,0-48.73,0c-2.88,0-5.8,0-7.82,2.63-2.59,1-2.27,3.69-3.2,5.65q-.06,15.72-.14,31.43-.07,15.17-.14,30.34l-1.51,1.44-1.89,1.93-.14,0,0,.14-2.34,2.4,0,0-1.2.79c-2.33-.72-3.16.66-3.62,2.57a28.53,28.53,0,0,1-6.89,5.38c-.59.31-1,1.29-1.82.8s-.5-1.29-.5-2q0-41.19,0-82.38c0-2.18.74-4.36-.18-6.5.06-.52.13-1,.19-1.55l0-.19a37.37,37.37,0,0,1,3.45-6l1.54-1.77h-.14l.69-.66,0,.13c5.61-5.07,12.26-6.54,19.69-6.43,14,.23,27.95-.05,41.93,0,1.84,0,2.4-.49,2.38-2.38-.12-10.09-.22-20.2,0-30.29,0-2.67-.56-3.94-3.31-3.76-.91-.17-1.85-.47-2.62.37a1.06,1.06,0,0,0-1.06-1,125,125,0,0,1-26-6.29v.09a29.21,29.21,0,0,0-5.57-2.09l0,0-14-6.68,0,.06a7.6,7.6,0,0,0-2.82-1.59l0,0-8.12-5,0,.05-1.69-1.13,0,.06-7.71-5.91,0,0c-.27-.38-.57-.71-1.11-.51-1.3-1.31-2.61-1.18-3.94,0s-2.48,2.07-3.71,3.1a17,17,0,0,0-4.49,3.32l0,0-6.59,4.14-.18.08A189.09,189.09,0,0,1,160,421.22l-.09-.08a9.4,9.4,0,0,0-3.08,1.34l0,0c-1.6.56-3.22,1.06-4.8,1.67-5.23,2-10.71,3.19-16,4.9l-.3.51a1.18,1.18,0,0,0-.49.16l-2.74.36c-.31-.56-.74-.23-1.14-.16a67.29,67.29,0,0,1-11.57,1.36c-2.42-.46-3.11.57-3.09,3,.11,11.1.08,22.21,0,33.32a4.54,4.54,0,0,0,1.58,3.81l.18,2.71c-.06.06-.17.15-.16.17a3.56,3.56,0,0,0,.26.31C119.22,475.54,118.33,477,119.4,477.87Z" transform="translate(-95.07 -371.43)"/><path class="cls-1" d="M318,566.56c-2.35-3-6-3.19-9.25-4.11A9.83,9.83,0,0,0,300,563c-1-.22-1.36.81-2.07,1.16l-.95.4-.15,0v0l-.79.34,0,0a10,10,0,0,0-3.26,2.7l-2,2.38,0,0a5.74,5.74,0,0,0-1.88,3.48c-.37,1.94-1.4,2.34-3.17,2.33-4.75,0-9.51-.05-14.26.18-3.34.16-6.19-.08-6.88-4.14,0-.07-.13-.12-.2-.18l0,0a7.08,7.08,0,0,0-2.22-3.29l0,.07-.62-.65.11,0a7.18,7.18,0,0,0-2.55-2.38h0l-1.3-.93a16.87,16.87,0,0,0-6.11-2.44,18.1,18.1,0,0,0-8.45.41c-.4.1-.81.21-1.22.35a18.64,18.64,0,0,0-9.24,7.2c-2.16.33-1.74-1.8-2.58-2.71,0-7,.16-13.92,0-20.87-.17-8.76.49-17.52-.18-26.28.13-.54.8-.88.61-1.55q32.7,0,65.42,0c4.41,0,8.82-.31,13.22.27,4.39,4.1,7.27,9.36,10.8,14.11,4,5.42,8.15,10.75,11.69,16.51.52,8.46,0,16.93.14,25.39l-.4.65c-2.07.08-4.15.14-6.22.27a1.75,1.75,0,0,1-2.1-1.47A16,16,0,0,0,318,566.56Z" transform="translate(-95.07 -371.43)"/><path class="cls-1" d="M293.6,583.08v.54a3.17,3.17,0,0,1-.17-.38S293.54,583.13,293.6,583.08Z" transform="translate(-95.07 -371.43)"/><path class="cls-1" d="M205.89,474.1l-.69.66Z" transform="translate(-95.07 -371.43)"/><path class="cls-1" d="M95.59,465.9l-.52.61Z" transform="translate(-95.07 -371.43)"/><path class="cls-1" d="M197.6,575.48a3.93,3.93,0,0,0,.06.48,1.86,1.86,0,0,1-.23-.32S197.54,575.54,197.6,575.48Z" transform="translate(-95.07 -371.43)"/><path class="cls-1" d="M135.22,429.68a1.18,1.18,0,0,1,.49-.16Z" transform="translate(-95.07 -371.43)"/><path class="cls-1" d="M132,560.62v0Z" transform="translate(-95.07 -371.43)"/><path class="cls-1" d="M199.11,488.17c.34-1.29.31-2.68,1-3.88.92,2.14.18,4.32.18,6.5q0,41.19,0,82.38c0,.69-.26,1.55.5,2s1.23-.49,1.82-.8a28.53,28.53,0,0,0,6.89-5.38l.43.43-.23.65c-1.26,1.37-2.25,3-4,3.88-1.52,1.86-3.85,3-4.89,5.29-.68-.17-.73,1.58-1.69.56,0-2.8,0-5.6.06-8.4,0-1.53,0-3.06-.07-4.6V549.43c0-.89,0-1.78,0-2.67,0-1.83,0-3.65,0-5.47,0-2,0-3.95,0-5.92,0-1.47,0-2.93,0-4.39,0-.71,0-1.42,0-2.13V522.3l0-6.46v-4.93Z" transform="translate(-95.07 -371.43)"/><path class="cls-1" d="M117.89,432.27v.56q0,8.94,0,17.88l0,2.21v5.91c-.48,4.19.31,8.33.37,12.5a4.54,4.54,0,0,1-1.58-3.81c.06-11.11.09-22.22,0-33.32,0-2.39.67-3.42,3.09-3C119.36,432,118,431,117.89,432.27Z" transform="translate(-95.07 -371.43)"/><path class="cls-1" d="M209.49,569c.46-1.91,1.29-3.29,3.62-2.57l-.67,1-.17,0,0,.17-2.32,1.8Z" transform="translate(-95.07 -371.43)"/><path class="cls-1" d="M118.46,474a.35.35,0,0,1,.1.48,3.56,3.56,0,0,1-.26-.31S118.4,474.1,118.46,474Z" transform="translate(-95.07 -371.43)"/><polygon class="cls-1" points="201.88 193.11 201.72 193.22 201.73 193.07 201.88 193.11"/><path class="cls-1" d="M262.2,568.41c-.21-.22-.41-.44-.62-.65C261.79,568,262,568.19,262.2,568.41Z" transform="translate(-95.07 -371.43)"/><path class="cls-1" d="M296.79,564.54a.61.61,0,0,1-.78.34Z" transform="translate(-95.07 -371.43)"/><path class="cls-1" d="M224.53,492.45l.66-.57Z" transform="translate(-95.07 -371.43)"/><path class="cls-1" d="M229.48,535.92a1.24,1.24,0,0,1,0,.47,1.85,1.85,0,0,1-.12-.33S229.44,536,229.48,535.92Z" transform="translate(-95.07 -371.43)"/><circle class="cls-1" cx="151.81" cy="206.35" r="9.98"/><circle class="cls-1" cx="211.86" cy="206.35" r="9.98"/><text class="cls-2" transform="translate(259.9 122.64)">SafeGuard</text><text class="cls-3" transform="translate(259.9 211.14)">Transport</text></svg>