<svg id="Layer_1" data-name="Layer 1" xmlns="http://www.w3.org/2000/svg" viewBox="0 0 217.79 217.79"><defs><style>.cls-1{fill:#2159b3;}.cls-2{fill:#fff;}</style></defs><rect class="cls-1" width="217.79" height="217.79" rx="46.98"/><path class="cls-2" d="M192,245.84c0,.45-.2.91.08,1.34a8,8,0,0,0,.24,2.92A73.16,73.16,0,0,0,197,266.76a65.41,65.41,0,0,0,13.63,21.85A69.19,69.19,0,0,0,220,297c.36.31.63.75,1.23.77a1.49,1.49,0,0,0,.15-.45c0-10.69,0-21.39-.05-32.08,0-2.7.3-5.43-.4-8.1-.56-2.32-2.25-3.28-4.41-3.69-.47-.56-1.13-.32-1.7-.33-2.8,0-5.61,0-8.42-.07l-.1-.62q0-6.12,0-12.23c0-.11.05-.21.07-.32l1.32-.32a58.3,58.3,0,0,0,7.93.08,1.26,1.26,0,0,0,1,0l4.28,0a23,23,0,0,1,4.46,1.06c5.68,2.36,8.49,6.7,8.85,12.75q0,12.62,0,25.24,0,20.61,0,41.2A28.32,28.32,0,0,1,227,317a89.12,89.12,0,0,1-24.77-18.17c-.8-.82-1.68-1.56-2.52-2.34v.08c0-.11-.06-.16-.17-.15a20.84,20.84,0,0,0-2.07-3,66.93,66.93,0,0,1-5.87-8.21l0-.11-3.76-6.5,0,0a9.47,9.47,0,0,0-1.36-2.69l0,.06a10.63,10.63,0,0,0-1.4-3l.06,0a3.68,3.68,0,0,0-.73-1.82v-.07c0-.29,0-.6-.29-.79l.07,0-1.11-2.67,0,0a114.31,114.31,0,0,1-4.24-19.1c-.06-.59.11-1.35-.51-1.82a.59.59,0,0,0-.06-.32c0-4.33-.36-8.64-.62-12.95,0-.39.07-.77.07-1.16,0-8.4,0-16.8,0-25.2,0-1.59.45-2.06,2-2.11a57.47,57.47,0,0,0,8.6-.5l.71-.06c1-.29,2.17,0,3.16-.56l.09,0a16.12,16.12,0,0,0,4.94-1,16.24,16.24,0,0,1,3.78-.75c1-.39,2.11-.26,3-.92l0,0a3.48,3.48,0,0,0,1-.08,86.12,86.12,0,0,0,14.27-6.31,81.15,81.15,0,0,0,17.58-13.65c.74-.78,1.28-1,2.1-.05a34.83,34.83,0,0,0,3.21,3.1c3.78,3.31,7.55,6.65,12,9l0,0a19.32,19.32,0,0,0,4,2.39l2.64,1.26a21,21,0,0,0,5.36,2.34l0,0c.48.22.95.47,1.43.67l.49.18c1.14.39,9.74,2.65,10.22,2.78a28.73,28.73,0,0,0,3.88.92,125.22,125.22,0,0,0,13.19,1.25c1.64,0,1.82.63,1.8,2-.06,6,0,12,0,17.94q0,14-.07,28.06l-6.47,0q-14.94,0-29.87,0c-1.76,0-3.56,0-4.79,1.61-1.59.63-1.39,2.26-2,3.47l-.09,19.26q0,9.3-.08,18.6l-.93.88-1.16,1.18-.09,0,0,.08-1.43,1.47,0,0-.73.49c-1.43-.44-1.94.4-2.22,1.58A17.51,17.51,0,0,1,243,305c-.36.19-.59.79-1.12.49s-.31-.79-.31-1.21q0-25.25,0-50.5c0-1.33.46-2.67-.11-4l.12-1,0-.11a22.18,22.18,0,0,1,2.12-3.69l.94-1.09h-.09l.43-.41,0,.08c3.44-3.11,7.51-4,12.07-3.94,8.56.14,17.13,0,25.7,0,1.12,0,1.47-.3,1.45-1.46-.07-6.18-.13-12.38,0-18.56,0-1.64-.34-2.42-2-2.31-.56-.11-1.13-.29-1.6.23a.65.65,0,0,0-.65-.6,77.33,77.33,0,0,1-15.95-3.86v.06a18.25,18.25,0,0,0-3.41-1.29l0,0-8.6-4.09,0,0a4.65,4.65,0,0,0-1.73-1l0,0-5-3.06,0,0-1-.69,0,0-4.73-3.62h0c-.17-.24-.35-.44-.68-.31a1.58,1.58,0,0,0-2.42,0l-2.27,1.9a10.37,10.37,0,0,0-2.76,2l0,0-4,2.54-.11,0a115.27,115.27,0,0,1-10.49,5.39l-.06-.05a5.69,5.69,0,0,0-1.89.82l0,0c-1,.34-2,.65-2.95,1-3.2,1.23-6.56,2-9.82,3l-.19.32a.75.75,0,0,0-.29.09l-1.68.22c-.19-.34-.46-.14-.7-.1a40.25,40.25,0,0,1-7.09.84c-1.48-.28-1.91.35-1.9,1.81.07,6.81.05,13.62,0,20.43a2.77,2.77,0,0,0,1,2.33l.1,1.66-.1.11c.05.07.11.12.17.19C191.88,244.41,191.33,245.28,192,245.84Z" transform="translate(-141.1 -141.1)"/><path class="cls-2" d="M313.75,300.21c-1.44-1.86-3.66-2-5.67-2.52a6,6,0,0,0-5.4.32c-.64-.13-.84.5-1.27.71l-.59.25-.09,0v0l-.49.21,0,0a6.15,6.15,0,0,0-2,1.66L297,302.28l0,0a3.53,3.53,0,0,0-1.15,2.13c-.23,1.19-.86,1.44-1.94,1.43-2.92,0-5.84,0-8.74.11-2.06.1-3.8-.05-4.22-2.54,0,0-.08-.07-.13-.11l0,0a4.28,4.28,0,0,0-1.36-2l0,0-.38-.4.07,0a4.46,4.46,0,0,0-1.56-1.46h0l-.8-.57a10.38,10.38,0,0,0-3.74-1.5,11.06,11.06,0,0,0-5.18.26q-.37.09-.75.21a11.33,11.33,0,0,0-5.66,4.42c-1.33.2-1.07-1.11-1.59-1.67,0-4.26.1-8.53,0-12.79-.1-5.37.31-10.74-.11-16.11.08-.33.5-.54.38-.95q20,0,40.1,0a62.55,62.55,0,0,1,8.1.16c2.69,2.52,4.46,5.74,6.62,8.65,2.46,3.32,5,6.59,7.17,10.12.32,5.19,0,10.38.08,15.57l-.24.39c-1.27.06-2.54.09-3.81.17a1.07,1.07,0,0,1-1.29-.9A9.82,9.82,0,0,0,313.75,300.21Z" transform="translate(-141.1 -141.1)"/><path class="cls-2" d="M298.77,310.33v.33a.94.94,0,0,1-.1-.23S298.73,310.36,298.77,310.33Z" transform="translate(-141.1 -141.1)"/><path class="cls-2" d="M245,243.53l-.43.41Z" transform="translate(-141.1 -141.1)"/><path class="cls-2" d="M177.39,238.51l-.31.37Z" transform="translate(-141.1 -141.1)"/><path class="cls-2" d="M239.92,305.67c0,.1,0,.2,0,.3a2.43,2.43,0,0,1-.14-.2Z" transform="translate(-141.1 -141.1)"/><path class="cls-2" d="M201.69,216.3a.75.75,0,0,1,.29-.09Z" transform="translate(-141.1 -141.1)"/><path class="cls-2" d="M199.69,296.56v0Z" transform="translate(-141.1 -141.1)"/><path class="cls-2" d="M240.85,252.16a9.15,9.15,0,0,1,.61-2.38c.57,1.31.11,2.65.11,4q0,25.25,0,50.5c0,.42-.15.95.31,1.21s.76-.3,1.12-.49a17.51,17.51,0,0,0,4.22-3.29l.26.26-.13.39a9.13,9.13,0,0,1-2.46,2.38c-.93,1.15-2.36,1.83-3,3.25-.41-.11-.44,1-1,.34,0-1.72,0-3.43,0-5.15,0-.94,0-1.88,0-2.82,0-2.87,0-5.74,0-8.62v-2c0-.54,0-1.09,0-1.63,0-1.12,0-2.24,0-3.35s0-2.42,0-3.63c0-.9,0-1.8,0-2.69V266.09Z" transform="translate(-141.1 -141.1)"/><path class="cls-2" d="M191.07,217.89v16.28c-.3,2.57.19,5.11.23,7.66a2.77,2.77,0,0,1-1-2.33c0-6.81.06-13.62,0-20.43,0-1.46.42-2.09,1.9-1.81C192,217.71,191.14,217.12,191.07,217.89Z" transform="translate(-141.1 -141.1)"/><path class="cls-2" d="M247.21,301.69c.28-1.18.79-2,2.22-1.58l-.41.6-.1,0,0,.1L247.47,302Z" transform="translate(-141.1 -141.1)"/><path class="cls-2" d="M191.41,243.49a.23.23,0,0,1,.07.3c-.06-.07-.12-.12-.17-.19Z" transform="translate(-141.1 -141.1)"/><polygon class="cls-2" points="159.72 157.86 159.62 157.94 159.63 157.84 159.72 157.86"/><path class="cls-2" d="M279.52,301.34l-.38-.4Z" transform="translate(-141.1 -141.1)"/><path class="cls-2" d="M300.73,299a.39.39,0,0,1-.49.21Z" transform="translate(-141.1 -141.1)"/><path class="cls-2" d="M256.43,254.78l.41-.35Z" transform="translate(-141.1 -141.1)"/><path class="cls-2" d="M259.47,281.42a1.4,1.4,0,0,1,0,.29.7.7,0,0,1-.08-.2S259.44,281.45,259.47,281.42Z" transform="translate(-141.1 -141.1)"/><circle class="cls-2" cx="129.02" cy="165.98" r="6.12"/><circle class="cls-2" cx="165.83" cy="165.98" r="6.12"/></svg>